<mxfile host="app.diagrams.net" modified="2022-11-04T21:37:28.354Z" agent="5.0 (Windows)" etag="5gx3YJ4JDOKzyStW0ONT" version="20.5.1" type="github">
  <diagram name="Page-1" id="2cc2dc42-3aac-f2a9-1cec-7a8b7cbee084">
    <mxGraphModel dx="1422" dy="3752" grid="1" gridSize="10" guides="1" tooltips="1" connect="1" arrows="1" fold="1" page="1" pageScale="1" pageWidth="850" pageHeight="3000" background="none" math="0" shadow="0">
      <root>
        <mxCell id="0" />
        <mxCell id="1" parent="0" />
        <mxCell id="7026571954dc6520-1" value="" style="strokeWidth=1;shadow=0;dashed=0;align=center;html=1;shape=mxgraph.mockup.containers.browserWindow;rSize=0;strokeColor=#666666;mainText=,;recursiveResize=0;rounded=0;labelBackgroundColor=none;fontFamily=Verdana;fontSize=12" parent="1" vertex="1">
          <mxGeometry x="240" y="-3000" width="1220" height="2610" as="geometry" />
        </mxCell>
        <mxCell id="7026571954dc6520-2" value="Page 2" style="strokeWidth=1;shadow=0;dashed=0;align=center;html=1;shape=mxgraph.mockup.containers.anchor;fontSize=17;fontColor=#666666;align=left;" parent="7026571954dc6520-1" vertex="1">
          <mxGeometry x="60" y="12" width="110" height="26" as="geometry" />
        </mxCell>
        <mxCell id="7026571954dc6520-3" value="https://www.default.com" style="strokeWidth=1;shadow=0;dashed=0;align=center;html=1;shape=mxgraph.mockup.containers.anchor;rSize=0;fontSize=17;fontColor=#666666;align=left;" parent="7026571954dc6520-1" vertex="1">
          <mxGeometry x="130" y="60" width="250" height="26" as="geometry" />
        </mxCell>
        <mxCell id="B-heLsuCo-pdH0CZtc7J-2" value="" style="rounded=0;whiteSpace=wrap;html=1;" vertex="1" parent="7026571954dc6520-1">
          <mxGeometry y="110" width="1050" height="70" as="geometry" />
        </mxCell>
        <mxCell id="B-heLsuCo-pdH0CZtc7J-1" value="" style="shape=image;html=1;verticalLabelPosition=bottom;verticalAlign=top;imageAspect=0;image=img/clipart/Gear_128x128.png" vertex="1" parent="7026571954dc6520-1">
          <mxGeometry y="110" width="70" height="70" as="geometry" />
        </mxCell>
        <mxCell id="B-heLsuCo-pdH0CZtc7J-3" value="&lt;div&gt;Home&lt;/div&gt;&lt;div&gt;&lt;br&gt;&lt;/div&gt;" style="rounded=0;whiteSpace=wrap;html=1;" vertex="1" parent="7026571954dc6520-1">
          <mxGeometry x="140" y="110" width="120" height="70" as="geometry" />
        </mxCell>
        <mxCell id="B-heLsuCo-pdH0CZtc7J-4" value="Page 2" style="rounded=0;whiteSpace=wrap;html=1;" vertex="1" parent="7026571954dc6520-1">
          <mxGeometry x="340" y="110" width="120" height="70" as="geometry" />
        </mxCell>
        <mxCell id="B-heLsuCo-pdH0CZtc7J-5" value="&lt;div&gt;Site Plan&lt;/div&gt;" style="rounded=0;whiteSpace=wrap;html=1;" vertex="1" parent="7026571954dc6520-1">
          <mxGeometry x="560" y="110" width="120" height="70" as="geometry" />
        </mxCell>
        <mxCell id="B-heLsuCo-pdH0CZtc7J-6" value="&lt;div&gt;Contact Us&lt;/div&gt;" style="rounded=0;whiteSpace=wrap;html=1;" vertex="1" parent="7026571954dc6520-1">
          <mxGeometry x="800" y="110" width="120" height="70" as="geometry" />
        </mxCell>
        <mxCell id="B-heLsuCo-pdH0CZtc7J-9" value="ARTICLE 1 TEXT" style="rounded=0;whiteSpace=wrap;html=1;opacity=50;" vertex="1" parent="7026571954dc6520-1">
          <mxGeometry x="295" y="620" width="630" height="340" as="geometry" />
        </mxCell>
        <mxCell id="B-heLsuCo-pdH0CZtc7J-8" value="&lt;div&gt;Title&lt;/div&gt;" style="text;strokeColor=none;fillColor=none;html=1;fontSize=24;fontStyle=1;verticalAlign=middle;align=center;" vertex="1" parent="7026571954dc6520-1">
          <mxGeometry x="505" y="210" width="210" height="60" as="geometry" />
        </mxCell>
        <mxCell id="B-heLsuCo-pdH0CZtc7J-10" value="&lt;font style=&quot;font-size: 19px;&quot;&gt;Header #1&lt;/font&gt;" style="rounded=0;whiteSpace=wrap;html=1;opacity=50;strokeColor=none;" vertex="1" parent="7026571954dc6520-1">
          <mxGeometry x="550" y="290" width="120" height="60" as="geometry" />
        </mxCell>
        <mxCell id="B-heLsuCo-pdH0CZtc7J-11" value="&lt;div&gt;&lt;font style=&quot;font-size: 19px;&quot;&gt;Header #2&lt;/font&gt;&lt;/div&gt;" style="rounded=0;whiteSpace=wrap;html=1;opacity=50;strokeColor=none;" vertex="1" parent="7026571954dc6520-1">
          <mxGeometry x="550" y="1010" width="120" height="60" as="geometry" />
        </mxCell>
        <mxCell id="B-heLsuCo-pdH0CZtc7J-12" value="" style="shape=image;html=1;verticalLabelPosition=bottom;verticalAlign=top;imageAspect=0;image=img/clipart/Gear_128x128.png;fontSize=19;opacity=75;" vertex="1" parent="7026571954dc6520-1">
          <mxGeometry x="370" y="390" width="480" height="200" as="geometry" />
        </mxCell>
        <mxCell id="B-heLsuCo-pdH0CZtc7J-13" value="" style="shape=image;html=1;verticalLabelPosition=bottom;verticalAlign=top;imageAspect=0;image=img/clipart/Gear_128x128.png;fontSize=19;opacity=75;" vertex="1" parent="7026571954dc6520-1">
          <mxGeometry x="370" y="1090" width="480" height="200" as="geometry" />
        </mxCell>
        <mxCell id="B-heLsuCo-pdH0CZtc7J-14" value="ARTICLE 2 TEXT" style="rounded=0;whiteSpace=wrap;html=1;opacity=50;" vertex="1" parent="7026571954dc6520-1">
          <mxGeometry x="305" y="1350" width="630" height="340" as="geometry" />
        </mxCell>
        <mxCell id="B-heLsuCo-pdH0CZtc7J-15" value="&lt;div&gt;&lt;font style=&quot;font-size: 19px;&quot;&gt;Header #3&lt;/font&gt;&lt;/div&gt;" style="rounded=0;whiteSpace=wrap;html=1;opacity=50;strokeColor=none;" vertex="1" parent="7026571954dc6520-1">
          <mxGeometry x="560" y="1730" width="120" height="60" as="geometry" />
        </mxCell>
        <mxCell id="B-heLsuCo-pdH0CZtc7J-16" value="" style="shape=image;html=1;verticalLabelPosition=bottom;verticalAlign=top;imageAspect=0;image=img/clipart/Gear_128x128.png;fontSize=19;opacity=75;" vertex="1" parent="7026571954dc6520-1">
          <mxGeometry x="390" y="1810" width="480" height="200" as="geometry" />
        </mxCell>
        <mxCell id="B-heLsuCo-pdH0CZtc7J-17" value="&lt;div&gt;ARTICLE 3 TEXT&lt;/div&gt;" style="rounded=0;whiteSpace=wrap;html=1;opacity=50;" vertex="1" parent="7026571954dc6520-1">
          <mxGeometry x="320" y="2070" width="630" height="340" as="geometry" />
        </mxCell>
        <mxCell id="B-heLsuCo-pdH0CZtc7J-18" value="Footer" style="rounded=0;whiteSpace=wrap;html=1;fontSize=19;opacity=75;" vertex="1" parent="1">
          <mxGeometry x="240" y="-490" width="1220" height="100" as="geometry" />
        </mxCell>
      </root>
    </mxGraphModel>
  </diagram>
</mxfile>
